<svg width="1920" height="168" viewBox="0 0 1920 168" fill="none" xmlns="http://www.w3.org/2000/svg">
<mask id="mask0_1_31" style="mask-type:alpha" maskUnits="userSpaceOnUse" x="0" y="0" width="1920" height="168">
<rect width="1920" height="168" fill="white"/>
</mask>
<g mask="url(#mask0_1_31)">
<ellipse cx="69.5" cy="59" rx="105.5" ry="107" fill="#FDFFF5"/>
<ellipse cx="915.5" cy="59" rx="105.5" ry="107" fill="#FDFFF5"/>
<ellipse cx="492.5" cy="59" rx="105.5" ry="107" fill="#FDFFF5"/>
<ellipse cx="1338.5" cy="59" rx="105.5" ry="107" fill="#FDFFF5"/>
<ellipse cx="1761.5" cy="59" rx="105.5" ry="107" fill="#FDFFF5"/>
<ellipse cx="175.5" cy="47" rx="105.5" ry="107" fill="#FDFFF5"/>
<ellipse cx="1021.5" cy="47" rx="105.5" ry="107" fill="#FDFFF5"/>
<ellipse cx="598.5" cy="47" rx="105.5" ry="107" fill="#FDFFF5"/>
<ellipse cx="1444.5" cy="47" rx="105.5" ry="107" fill="#FDFFF5"/>
<ellipse cx="1867.5" cy="47" rx="105.5" ry="107" fill="#FDFFF5"/>
<ellipse cx="281.5" cy="59" rx="105.5" ry="107" fill="#FDFFF5"/>
<ellipse cx="1127.5" cy="59" rx="105.5" ry="107" fill="#FDFFF5"/>
<ellipse cx="704.5" cy="59" rx="105.5" ry="107" fill="#FDFFF5"/>
<ellipse cx="1550.5" cy="59" rx="105.5" ry="107" fill="#FDFFF5"/>
<ellipse cx="387.5" cy="47" rx="105.5" ry="107" fill="#FDFFF5"/>
<ellipse cx="1233.5" cy="47" rx="105.5" ry="107" fill="#FDFFF5"/>
<ellipse cx="810.5" cy="47" rx="105.5" ry="107" fill="#FDFFF5"/>
<ellipse cx="1656.5" cy="47" rx="105.5" ry="107" fill="#FDFFF5"/>
</g>
</svg>
